<?xml version="1.0" encoding="UTF-8" standalone="no"?>
<!DOCTYPE svg PUBLIC "-//W3C//DTD SVG 1.1//EN" "http://www.w3.org/Graphics/SVG/1.1/DTD/svg11.dtd">
<svg width="100%" height="100%" viewBox="0 0 1404 1872" version="1.1" xmlns="http://www.w3.org/2000/svg" xmlns:xlink="http://www.w3.org/1999/xlink" xml:space="preserve" xmlns:serif="http://www.serif.com/" style="fill-rule:evenodd;clip-rule:evenodd;stroke-linecap:round;stroke-linejoin:round;stroke-miterlimit:1.5;">
    <g transform="matrix(1.04257,0,0,1.06963,-60.7003,-132.466)">
        <g id="Layer2">
            <rect x="0.526" y="88.425" width="1425.31" height="1813.96" style="fill:rgb(252,252,252);"/>
        </g>
    </g>
    <g id="Layer1">
        <g transform="matrix(5.87739,0,0,5.87739,-860.429,-918.672)">
            <text x="168.698px" y="186.233px" style="font-family:'Roboto-Black', 'Roboto Black';font-weight:900;font-size:12px;">Paint Plan</text>
        </g>
        <g transform="matrix(0.843755,0,0,1,21.0676,0)">
            <rect x="134.837" y="229.767" width="730.419" height="53.209" style="fill:rgb(8,2,2);"/>
        </g>
        <g transform="matrix(3.32972,0,0,3.32972,-427.385,-558.784)">
            <text x="171.116px" y="249.116px" style="font-family:'RobotoCondensed-Regular', 'Roboto Condensed';font-size:12px;fill:rgb(251,245,245);">Details</text>
        </g>
        <g transform="matrix(0.841802,0,0,1,664.065,0)">
            <rect x="134.837" y="229.767" width="730.419" height="53.209" style="fill:rgb(8,2,2);"/>
        </g>
        <g transform="matrix(3.2722,0,0,3.32972,229.328,-558.784)">
            <text x="171.116px" y="249.116px" style="font-family:'RobotoCondensed-Regular', 'Roboto Condensed';font-size:12px;fill:rgb(251,245,245);">Priming</text>
        </g>
        <g transform="matrix(0.889327,0,0,1,14.9229,242)">
            <rect x="134.837" y="229.767" width="730.419" height="53.209" style="fill:rgb(8,2,2);"/>
        </g>
        <g transform="matrix(3.32972,0,0,3.32972,-427.385,-316.784)">
            <text x="171.116px" y="249.116px" style="font-family:'RobotoCondensed-Regular', 'Roboto Condensed';font-size:12px;fill:rgb(251,245,245);">Paint Scheme</text>
        </g>
        <g transform="matrix(1,0,0,1,0,1262)">
            <rect x="134.837" y="229.767" width="730.419" height="53.209" style="fill:rgb(8,2,2);"/>
        </g>
        <g transform="matrix(3.32972,0,0,3.32972,-427.385,703.216)">
            <text x="171.116px" y="249.116px" style="font-family:'RobotoCondensed-Regular', 'Roboto Condensed';font-size:12px;fill:rgb(251,245,245);">Notes</text>
        </g>
        <g transform="matrix(1,0,0,0.86768,9.05892,23.2323)">
            <g transform="matrix(0.781963,0,0,0.781963,22.1018,422.406)">
                <text x="151.767px" y="328.93px" style="font-family:'RobotoCondensed-Bold', 'Roboto Condensed';font-weight:700;font-size:44.341px;fill:rgb(102,102,102);">Ar<tspan x="192.536px " y="328.93px ">e</tspan>a</text>
            </g>
            <g transform="matrix(0.781963,0,0,0.781963,161.165,422.88)">
                <text x="151.767px" y="328.93px" style="font-family:'RobotoCondensed-Bold', 'Roboto Condensed';font-weight:700;font-size:44.341px;fill:rgb(102,102,102);">P<tspan x="176.752px " y="328.93px ">a</tspan>ints</text>
            </g>
        </g>
        <g transform="matrix(1,0,0,1.19265,0,-204.748)">
            <path d="M140.384,699.676L1201.8,699.451" style="fill:none;stroke:rgb(78,78,78);stroke-width:0.91px;"/>
        </g>
        <g transform="matrix(1,0,0,1.19265,0,-153.465)">
            <path d="M140.384,699.676L1201.8,699.451" style="fill:none;stroke:rgb(78,78,78);stroke-width:0.91px;"/>
        </g>
        <g transform="matrix(1,0,0,1.19265,0,-153.465)">
            <path d="M140.384,699.676L1201.8,699.451" style="fill:none;stroke:rgb(78,78,78);stroke-width:0.91px;"/>
        </g>
        <g transform="matrix(1,0,0,1.19265,0,-102.181)">
            <path d="M140.384,699.676L1201.8,699.451" style="fill:none;stroke:rgb(78,78,78);stroke-width:0.91px;"/>
        </g>
        <g transform="matrix(1,0,0,1.19265,0,-102.181)">
            <path d="M140.384,699.676L1201.8,699.451" style="fill:none;stroke:rgb(78,78,78);stroke-width:0.91px;"/>
        </g>
        <g transform="matrix(1,0,0,1.19265,0,-50.8967)">
            <path d="M140.384,699.676L1201.8,699.451" style="fill:none;stroke:rgb(78,78,78);stroke-width:0.91px;"/>
        </g>
        <g transform="matrix(1,0,0,1.19265,0,-50.8967)">
            <path d="M140.384,699.676L1201.8,699.451" style="fill:none;stroke:rgb(78,78,78);stroke-width:0.91px;"/>
        </g>
        <g transform="matrix(1,0,0,1.19265,0,0.387161)">
            <path d="M140.384,699.676L1201.8,699.451" style="fill:none;stroke:rgb(78,78,78);stroke-width:0.91px;"/>
        </g>
        <g transform="matrix(1,0,0,1.19265,0,0.387161)">
            <path d="M140.384,699.676L1201.8,699.451" style="fill:none;stroke:rgb(78,78,78);stroke-width:0.91px;"/>
        </g>
        <g transform="matrix(1,0,0,1.19265,0,51.6711)">
            <path d="M140.384,699.676L1201.8,699.451" style="fill:none;stroke:rgb(78,78,78);stroke-width:0.91px;"/>
        </g>
        <g transform="matrix(1,0,0,1.19265,0,51.6711)">
            <path d="M140.384,699.676L1201.8,699.451" style="fill:none;stroke:rgb(78,78,78);stroke-width:0.91px;"/>
        </g>
        <g transform="matrix(1,0,0,1.19265,0,102.955)">
            <path d="M140.384,699.676L1201.8,699.451" style="fill:none;stroke:rgb(78,78,78);stroke-width:0.91px;"/>
        </g>
        <g transform="matrix(1,0,0,1.19265,0,102.955)">
            <path d="M140.384,699.676L1201.8,699.451" style="fill:none;stroke:rgb(78,78,78);stroke-width:0.91px;"/>
        </g>
        <g transform="matrix(1,0,0,1.19265,0,154.239)">
            <path d="M140.384,699.676L1201.8,699.451" style="fill:none;stroke:rgb(78,78,78);stroke-width:0.91px;"/>
        </g>
        <g transform="matrix(1,0,0,1.19265,0,154.239)">
            <path d="M140.384,699.676L1201.8,699.451" style="fill:none;stroke:rgb(78,78,78);stroke-width:0.91px;"/>
        </g>
        <g transform="matrix(1,0,0,1.19265,0,205.523)">
            <path d="M140.384,699.676L1201.8,699.451" style="fill:none;stroke:rgb(78,78,78);stroke-width:0.91px;"/>
        </g>
        <g transform="matrix(1,0,0,1.19265,0,205.523)">
            <path d="M140.384,699.676L1201.8,699.451" style="fill:none;stroke:rgb(78,78,78);stroke-width:0.91px;"/>
        </g>
        <g transform="matrix(1,0,0,1.19265,0,256.807)">
            <path d="M140.384,699.676L1201.8,699.451" style="fill:none;stroke:rgb(78,78,78);stroke-width:0.91px;"/>
        </g>
        <g transform="matrix(1,0,0,1.19265,0,256.807)">
            <path d="M140.384,699.676L1201.8,699.451" style="fill:none;stroke:rgb(78,78,78);stroke-width:0.91px;"/>
        </g>
        <g transform="matrix(1,0,0,1.19265,0,308.091)">
            <path d="M140.384,699.676L1201.8,699.451" style="fill:none;stroke:rgb(78,78,78);stroke-width:0.91px;"/>
        </g>
        <g transform="matrix(1,0,0,1.19265,0,308.091)">
            <path d="M140.384,699.676L1201.8,699.451" style="fill:none;stroke:rgb(78,78,78);stroke-width:0.91px;"/>
        </g>
        <g transform="matrix(1,0,0,1.19265,0,359.374)">
            <path d="M140.384,699.676L1201.8,699.451" style="fill:none;stroke:rgb(78,78,78);stroke-width:0.91px;"/>
        </g>
        <g transform="matrix(1,0,0,1.19265,0,359.374)">
            <path d="M140.384,699.676L1201.8,699.451" style="fill:none;stroke:rgb(78,78,78);stroke-width:0.91px;"/>
        </g>
        <g transform="matrix(1,0,0,1.19265,0,410.658)">
            <path d="M140.384,699.676L1201.8,699.451" style="fill:none;stroke:rgb(78,78,78);stroke-width:0.91px;"/>
        </g>
        <g transform="matrix(1,0,0,1.19265,0,410.658)">
            <path d="M140.384,699.676L1201.8,699.451" style="fill:none;stroke:rgb(78,78,78);stroke-width:0.91px;"/>
        </g>
        <g transform="matrix(1,0,0,1.19265,0,461.942)">
            <path d="M140.384,699.676L1201.8,699.451" style="fill:none;stroke:rgb(78,78,78);stroke-width:0.91px;"/>
        </g>
        <g transform="matrix(1,0,0,1.19265,0,461.942)">
            <path d="M140.384,699.676L1201.8,699.451" style="fill:none;stroke:rgb(78,78,78);stroke-width:0.91px;"/>
        </g>
        <g transform="matrix(1,0,0,1.19265,0,462.091)">
            <path d="M140.384,699.676L1201.8,699.451" style="fill:none;stroke:rgb(78,78,78);stroke-width:0.91px;"/>
        </g>
        <g transform="matrix(1,0,0,1.19265,0,462.091)">
            <path d="M140.384,699.676L1201.8,699.451" style="fill:none;stroke:rgb(78,78,78);stroke-width:0.91px;"/>
        </g>
        <g transform="matrix(1,0,0,1.19265,0,513.374)">
            <path d="M140.384,699.676L1201.8,699.451" style="fill:none;stroke:rgb(78,78,78);stroke-width:0.91px;"/>
        </g>
        <g transform="matrix(1,0,0,1.19265,0,513.374)">
            <path d="M140.384,699.676L1201.8,699.451" style="fill:none;stroke:rgb(78,78,78);stroke-width:0.91px;"/>
        </g>
        <g transform="matrix(1,0,0,1.19265,0,564.658)">
            <path d="M140.384,699.676L1201.8,699.451" style="fill:none;stroke:rgb(78,78,78);stroke-width:0.91px;"/>
        </g>
        <g transform="matrix(1,0,0,1.19265,0,564.658)">
            <path d="M140.384,699.676L1201.8,699.451" style="fill:none;stroke:rgb(78,78,78);stroke-width:0.91px;"/>
        </g>
        <g transform="matrix(1,0,0,1.19265,0,615.942)">
            <path d="M140.384,699.676L1201.8,699.451" style="fill:none;stroke:rgb(78,78,78);stroke-width:0.91px;"/>
        </g>
        <g transform="matrix(1,0,0,1.19265,0,615.942)">
            <path d="M140.384,699.676L1201.8,699.451" style="fill:none;stroke:rgb(78,78,78);stroke-width:0.91px;"/>
        </g>
        <g transform="matrix(1,0,0,1.25316,0,711.928)">
            <path d="M140.384,699.676L1201.8,699.451" style="fill:none;stroke:rgb(78,78,78);stroke-width:0.88px;"/>
        </g>
        <g transform="matrix(1,0,0,1.25316,0,711.928)">
            <path d="M140.384,699.676L1201.8,699.451" style="fill:none;stroke:rgb(78,78,78);stroke-width:0.88px;"/>
        </g>
        <g transform="matrix(1,0,0,1.25316,0,765.814)">
            <path d="M140.384,699.676L1201.8,699.451" style="fill:none;stroke:rgb(78,78,78);stroke-width:0.88px;"/>
        </g>
        <g transform="matrix(1,0,0,1.25316,0,765.814)">
            <path d="M140.384,699.676L1201.8,699.451" style="fill:none;stroke:rgb(78,78,78);stroke-width:0.88px;"/>
        </g>
        <g transform="matrix(1,0,0,1.25316,0,819.7)">
            <path d="M140.384,699.676L1201.8,699.451" style="fill:none;stroke:rgb(78,78,78);stroke-width:0.88px;"/>
        </g>
        <g transform="matrix(1,0,0,1.25316,0,819.7)">
            <path d="M140.384,699.676L1201.8,699.451" style="fill:none;stroke:rgb(78,78,78);stroke-width:0.88px;"/>
        </g>
        <g transform="matrix(1,0,0,1.25316,0,873.585)">
            <path d="M140.384,699.676L1201.8,699.451" style="fill:none;stroke:rgb(78,78,78);stroke-width:0.88px;"/>
        </g>
        <g transform="matrix(1,0,0,1.25316,0,873.585)">
            <path d="M140.384,699.676L1201.8,699.451" style="fill:none;stroke:rgb(78,78,78);stroke-width:0.88px;"/>
        </g>
        <g transform="matrix(1,0,0,1.25316,0,927.471)">
            <path d="M140.384,699.676L1201.8,699.451" style="fill:none;stroke:rgb(78,78,78);stroke-width:0.88px;"/>
        </g>
        <g transform="matrix(1,0,0,1.25316,0,927.471)">
            <path d="M140.384,699.676L1201.8,699.451" style="fill:none;stroke:rgb(78,78,78);stroke-width:0.88px;"/>
        </g>
        <g transform="matrix(1,0,0,1.25316,0,981.357)">
            <path d="M140.384,699.676L1201.8,699.451" style="fill:none;stroke:rgb(174,174,174);stroke-width:0.88px;"/>
        </g>
        <g transform="matrix(1,0,0,1.25316,0,981.357)">
            <path d="M140.384,699.676L1201.8,699.451" style="fill:none;stroke:rgb(78,78,78);stroke-width:0.88px;"/>
        </g>
        <g transform="matrix(0.863941,0,0,1.14438,-74.7627,-199.875)">
            <path d="M399.968,689.588L399.968,1451.48" style="fill:none;stroke:rgb(174,174,174);stroke-width:0.99px;"/>
        </g>
        <g transform="matrix(0.781963,0,0,0.678494,20.1607,102.498)">
            <text x="151.767px" y="328.93px" style="font-family:'RobotoCondensed-Regular', 'Roboto Condensed';font-size:44.341px;fill:rgb(135,132,132);stroke:rgb(135,132,132);stroke-width:1.37px;stroke-linecap:butt;stroke-miterlimit:2;">Game System:</text>
        </g>
        <g transform="matrix(0.746804,0,0,0.86768,104.471,46.2323)">
            <path d="M316.324,323.41L861.583,323.41" style="fill:none;stroke:rgb(78,78,78);stroke-width:1.24px;"/>
        </g>
        <g transform="matrix(0.852383,0,0,1,22.2242,53.1514)">
            <g transform="matrix(0.781963,0,0,0.781963,19.6462,64.8458)">
                <text x="151.767px" y="328.93px" style="font-family:'RobotoCondensed-Regular', 'Roboto Condensed';font-size:44.341px;fill:rgb(135,132,132);stroke:rgb(135,132,132);stroke-width:1.38px;stroke-linecap:butt;stroke-miterlimit:2;">Army Name:</text>
            </g>
            <g transform="matrix(0.981243,0,0,1,5.93336,0)">
                <path d="M316.324,323.41L861.583,323.41" style="fill:none;stroke:rgb(135,132,132);stroke-width:1.08px;"/>
            </g>
        </g>
        <g transform="matrix(0.853814,0,0,1,20.9907,104.612)">
            <g transform="matrix(0.781963,0,0,0.781963,21.1018,64.8458)">
                <text x="151.767px" y="328.93px" style="font-family:'RobotoCondensed-Regular', 'Roboto Condensed';font-size:44.341px;fill:rgb(135,132,132);stroke:rgb(135,132,132);stroke-width:1.38px;stroke-linecap:butt;stroke-miterlimit:2;">Unit Name:</text>
            </g>
            <g transform="matrix(1.00926,0,0,1,-20.0493,0)">
                <path d="M316.324,323.41L861.583,323.41" style="fill:none;stroke:rgb(135,132,132);stroke-width:1.07px;"/>
            </g>
        </g>
        <g transform="matrix(1.10544,0,0,1,428.781,53.1514)">
            <path d="M316.324,323.41L861.583,323.41" style="fill:none;stroke:rgb(135,132,132);stroke-width:0.95px;"/>
        </g>
        <g transform="matrix(1.10591,0,0,1,428.633,104.612)">
            <path d="M316.324,323.41L861.583,323.41" style="fill:none;stroke:rgb(135,132,132);stroke-width:0.95px;"/>
        </g>
        <g transform="matrix(1.10552,0,0,0.86768,428.756,46.2323)">
            <path d="M316.324,323.41L861.583,323.41" style="fill:none;stroke:rgb(78,78,78);stroke-width:1.01px;"/>
        </g>
    </g>
</svg>
